:SAMPLES-PER-SECOND 30
:FULLY-SPECIFIED
:DEGREES
124
root  -3.29003 16.622 -4.43866 -6.02405 79.1792 17.0955
RightUpLeg  -37.4206 -2.84292 -3.59794
RightLeg  142.075 20.8761 -5.94181
RightFoot  -36.8098 1.9736 9.32959
RightToes  2.85217e-009 -3.18055e-015 8.94531e-016
Spine  63.0819 0.822873 -4.71497
Spine1  10.7531 0.0658661 -10.1335
HEad  -25.267 0.286213 4.38661
LeftShoulder1  0 -2.69403e-036 -1.28585e-037
LeftArm  -11.1098 -54.3219 -63.6934
LeftForeArm  -134.532 -49.6368 168.693
LeftHand  0.295829 4.79572 14.835
RightShoulder  -2.48481e-017 0 -8.08114e-019
RightArm  -0.828668 40.9986 72.3802
RightForeArm  -91.7136 46.7692 -154.072
RightHand  4.36096 -17.7627 -24.7128
LeftUpLeg  -79.8294 -0.899431 -4.10551
LeftLeg  110.533 -17.6241 8.99772
LeftFoot  -13.3297 -0.0377499 -3.24883
LeftToes  -3.29237e-010 -4.9359e-011 -7.59376e-011
125
root  -2.59861 17.4746 -4.52789 -18.3723 80.232 2.89734
RightUpLeg  -37.4299 -2.98171 -3.15442
RightLeg  139.952 17.0143 -3.54296
RightFoot  -31.7341 1.52532 9.24325
RightToes  2.85217e-009 -3.18055e-015 8.94531e-016
Spine  62.9636 0.333402 -3.50755
Spine1  9.67896 0.313323 -9.70392
HEad  -24.8571 0.0828774 4.91137
LeftShoulder1  0 -2.69403e-036 -1.28585e-037
LeftArm  -10.8321 -54.5194 -63.45
LeftForeArm  -135.236 -49.5774 168.789
LeftHand  0.345903 4.95681 14.572
RightShoulder  -2.48481e-017 0 -8.08114e-019
RightArm  -1.43732 40.5156 71.7417
RightForeArm  -92.0518 46.6208 -154.296
RightHand  4.38004 -17.8705 -24.5598
LeftUpLeg  -78.4993 -1.42166 -2.49558
LeftLeg  110.628 -17.1383 7.88863
LeftFoot  -15.6607 -0.095282 -2.51859
LeftToes  -3.29237e-010 -4.9359e-011 -7.59376e-011
126
root  -1.9247 18.3118 -4.60083 -30.1559 80.8515 -10.0612
RightUpLeg  -39.1091 -2.5709 -3.20484
RightLeg  138.158 13.8644 -1.24315
RightFoot  -19.9104 0.566519 9.33884
RightToes  2.85217e-009 -3.18055e-015 8.94531e-016
Spine  62.9555 0.629394 -2.85659
Spine1  9.51151 0.738056 -8.07176
HEad  -25.1766 -0.502185 4.68107
LeftShoulder1  0 -2.69403e-036 -1.28585e-037
LeftArm  -11.2043 -54.7851 -63.3377
LeftForeArm  -135.627 -49.4916 168.882
LeftHand  0.38272 5.06801 14.2679
RightShoulder  -2.48481e-017 0 -8.08114e-019
RightArm  -2.06032 40.3688 70.3684
RightForeArm  -92.4671 46.5052 -154.479
RightHand  4.39321 -17.9823 -24.3455
LeftUpLeg  -76.2572 -1.9512 -1.38668
LeftLeg  110.227 -16.8011 7.3167
LeftFoot  -18.0897 -0.129493 -1.85098
LeftToes  -3.29237e-010 -4.9359e-011 -7.59376e-011
127
root  -1.22624 18.9711 -4.64637 -43.608 81.2116 -24.3722
RightUpLeg  -42.2852 -2.01661 -3.34394
RightLeg  137.152 10.59 1.54021
RightFoot  -4.20085 -0.759315 9.5635
RightToes  2.85217e-009 -3.18055e-015 8.94531e-016
Spine  62.7876 0.872926 -2.25875
Spine1  9.72144 1.0997 -6.43501
HEad  -25.9194 -0.718019 4.15475
LeftShoulder1  0 -2.69403e-036 -1.28585e-037
LeftArm  -12.0031 -54.9214 -62.9423
LeftForeArm  -135.976 -49.4407 168.945
LeftHand  0.43746 5.24612 13.9188
RightShoulder  -2.48481e-017 0 -8.08114e-019
RightArm  -2.31174 40.4447 69.2864
RightForeArm  -92.8089 46.5858 -154.395
RightHand  4.41898 -18.1 -24.2278
LeftUpLeg  -74.2044 -2.67431 -0.184772
LeftLeg  110.071 -16.5935 6.90658
LeftFoot  -19.9949 -0.135108 -1.30667
LeftToes  -3.29237e-010 -4.9359e-011 -7.59376e-011
128
root  -0.496871 19.5303 -4.66219 -58.5847 81.0561 -39.9224
RightUpLeg  -45.8737 -1.63201 -3.05045
RightLeg  136.431 6.59289 5.18075
RightFoot  4.61069 -1.49986 9.70713
RightToes  2.85217e-009 -3.18055e-015 8.94531e-016
Spine  62.6621 0.562379 -1.58243
Spine1  9.94115 1.19257 -5.56997
HEad  -26.2572 -0.00914701 4.13685
LeftShoulder1  0 -2.69403e-036 -1.28585e-037
LeftArm  -12.5079 -54.8319 -62.2754
LeftForeArm  -136.388 -49.4379 168.978
LeftHand  0.5159 5.52 13.5802
RightShoulder  -2.48481e-017 0 -8.08114e-019
RightArm  -1.87037 40.3461 69.4778
RightForeArm  -92.9602 46.7691 -154.16
RightHand  4.43483 -18.1429 -24.2423
LeftUpLeg  -72.265 -3.31703 1.25449
LeftLeg  110.332 -16.3133 6.15814
LeftFoot  -21.6927 -0.112538 -0.670363
LeftToes  -3.29237e-010 -4.9359e-011 -7.59376e-011
129
root  0.272908 20.1765 -4.71832 -71.1826 80.1916 -52.8741
RightUpLeg  -49.631 -1.82591 -1.71139
RightLeg  134.757 4.07317 7.84876
RightFoot  1.09537 -1.01663 7.87198
RightToes  2.85217e-009 -3.18055e-015 8.94531e-016
Spine  62.644 -0.194898 -0.72916
Spine1  10.288 1.06141 -4.97082
HEad  -25.7949 1.19592 4.78721
LeftShoulder1  0 -2.69403e-036 -1.28585e-037
LeftArm  -12.5342 -54.69 -61.733
LeftForeArm  -136.682 -49.4914 168.96
LeftHand  0.576274 5.73259 13.2774
RightShoulder  -2.48481e-017 0 -8.08114e-019
RightArm  -1.00811 39.9147 70.5164
RightForeArm  -93.0131 46.8279 -154.085
RightHand  4.42592 -18.11 -24.2596
LeftUpLeg  -69.7352 -3.58284 2.72792
LeftLeg  110.397 -15.9569 5.31426
LeftFoot  -23.7617 -0.064227 0.0586513
LeftToes  -3.29237e-010 -4.9359e-011 -7.59376e-011
